# AST/ASF file generated using VICON BodyLanguage
# -----------------------------------------------
:version 1.10
:name VICON
:units
  mass 1.0
  length 0.45
  angle deg
:documentation
   .ast/.asf automatically generated from VICON data using
   VICON BodyBuilder and BodyLanguage model FoxedUp or BRILLIANT.MOD
:root
   order TX TY TZ RX RY RZ
   axis XYZ
   position 0 0 0  
   orientation 0 0 0 
:bonedata
  begin
     id 1 
     name lhipjoint
     direction 0.630082 -0.636569 0.44472 
     length 2.82754 
     axis 0 0 0  XYZ
  end
  begin
     id 2 
     name lfemur
     direction 0.34202 -0.939693 0  
     length 7.26371  
     axis 0 0 20  XYZ
    dof rx ry rz
    limits (-160.0 20.0)
           (-70.0 70.0)
           (-60.0 70.0)
  end
  begin
     id 3 
     name ltibia
     direction 0.34202 -0.939693 0   
     length 7.88616   
     axis 0 0 20   XYZ
    dof rx
    limits (-10.0 170.0)
  end
  begin
     id 4 
     name lfoot
     direction 0.0603448 -0.165796 0.984312   
     length 1.77861   
     axis -90 7.62852e-016 20   XYZ
    dof rx rz
    limits (-45.0 90.0)
           (-70.0 20.0)
  end
  begin
     id 5 
     name ltoes
     direction 1.53577e-011 -4.21876e-011 1   
     length 0.902235   
     axis -90 7.62852e-016 20   XYZ
    dof rx
    limits (-90.0 20.0)
  end
  begin
     id 6 
     name rhipjoint
     direction -0.656778 -0.61817 0.431866   
     length 2.9117  
     axis 0 0 0  XYZ 
  end
  begin
     id 7 
     name rfemur
     direction -0.34202 -0.939693 0   
     length 6.81603   
     axis 0 0 -20   XYZ
    dof rx ry rz
    limits (-160.0 20.0)
           (-70.0 70.0)
           (-70.0 60.0)
  end
  begin
     id 8 
     name rtibia
     direction -0.34202 -0.939693 0   
     length 8.05997   
     axis 0 0 -20   XYZ
    dof rx
    limits (-10.0 170.0)
 end
 begin
     id 9 
     name rfoot
     direction -0.0862404 -0.236944 0.967688   
     length 1.84899  
     axis -90 -7.62852e-016 -20   XYZ
    dof rx rz
    limits (-45.0 90.0)
           (-20.0 70.0)
  end
  begin
     id 10 
     name rtoes
     direction -1.53561e-011 -4.21798e-011 1   
     length 0.931579   
     axis -90 -7.62852e-016 -20   XYZ
    dof rx
    limits (-90.0 20.0)
  end
  begin
     id 11 
     name lowerback
     direction -0.0110203 0.991769 -0.127564   
     length 2.05686   
     axis 0 0 0   XYZ
    dof rx ry rz
    limits (-20.0 45.0)
           (-30.0 30.0)
           (-30.0 30.0)
  end
  begin
     id 12 
     name upperback
     direction 0.0109719 0.99993 -0.00432479   
     length 2.06234   
     axis 0 0 0   XYZ
    dof rx ry rz
    limits (-20.0 45.0)
           (-30.0 30.0)
           (-30.0 30.0)
  end
  begin
     id 13 
     name thorax
     direction 0.0173308 0.998351 0.0547306   
     length 2.09856   
     axis 0 0 0   XYZ
    dof rx ry rz
    limits (-20.0 45.0)
           (-30.0 30.0)
           (-30.0 30.0)
  end
  begin
     id 14 
     name lowerneck
     direction -0.0311736 0.989033 0.144366   
     length 1.98151   
     axis 0 0 0   XYZ
    dof rx ry rz
    limits (-20.0 45.0)
           (-30.0 30.0)
           (-30.0 30.0)
  end
  begin
     id 15 
     name upperneck
     direction 0.0421057 0.975772 -0.214698   
     length 2.01457   
     axis 0 0 0   XYZ
    dof rx ry rz
    limits (-20.0 45.0)
           (-30.0 30.0)
           (-30.0 30.0)
  end
  begin
     id 16
     name head
     direction 0.0136911 0.995958 -0.0887718  
     length 2.03562  
     axis 0 0 0   XYZ
    dof rx ry rz
    limits (-20.0 45.0)
           (-30.0 30.0)
           (-30.0 30.0)
  end
  begin
     id 17 
     name lclavicle
     direction 0.915335 0.396201 0.0720134  
     length 4.16217  
     axis 0 0 0   XYZ
    dof ry rz
    limits (-20.0 10.0)
           (0.0 20.0)
  end
  begin
     id 18 
     name lhumerus
     direction 1 -4.48965e-011 6.383e-018   
     length 4.93042   
     axis -180 -30 -90   XYZ
    dof rx ry rz
    limits (-60.0 90.0)
           (-90.0 90.0)
           (-90.0 90.0)
  end
  begin
     id 19
     name lradius
     direction 1 -4.48972e-011 8.8689e-027   
     length 3.68177   
     axis -180 -30 -90   XYZ
    dof rx
    limits (-10.0 170.0)
  end
  begin
     id 20
     name lwrist
     direction 1 -4.48953e-011 1.17971e-026   
     length 1.84089   
     axis -7.69454e-015 90 90   XYZ
    dof ry
    limits (-180.0 0.0)
 end
  begin
     id 21 
     name lhand
     direction 1 -4.49027e-011 2.35802e-026   
     length 0.721479   
     axis -1.50533e-014 90 90   XYZ
    dof rx rz
    limits (-90.0 90.0)
           (-45.0 45.0)
  end
  begin
     id 22 
     name lfingers
     direction 1 -4.48915e-011 4.72027e-026   
     length 0.581675   
     axis -3.01059e-014 90 90   XYZ
    dof rx
    limits (0.0 90.0)
  end
  begin
     id 23
     name lthumb
     direction 0.707107 -6.34948e-011 0.707107   
     length 0.835172   
     axis -90 45 -5.12164e-014   XYZ
    dof rx rz
    limits (-45.0 45.0)
           (-45.0 45.0)
  end
  begin
     id 24 
     name rclavicle
     direction -0.882781 0.469197 0.0234974   
     length 3.95647  
     axis 0 0 0   XYZ 
    dof ry rz
    limits (-10.0 20.0)
           (-20.0 0.0)
  end
  begin
     id 25 
     name rhumerus
     direction -1 -4.48965e-011 -1.54906e-018  
     length 5.07905   
     axis -180 30 90   XYZ
    dof rx ry rz
    limits (-90.0 60.0)
           (-90.0 90.0)
           (-90.0 90.0)
  end
  begin
     id 26 
     name rradius
     direction -1 -4.48972e-011 5.47489e-027   
     length 3.54394   
     axis -180 30 90   XYZ
    dof rx
    limits (-10.0 170.0)
  end
  begin
     id 27 
     name rwrist
     direction -1 -4.48955e-011 1.17969e-026   
     length 1.77197   
     axis -7.69454e-015 -90 -90   XYZ
    dof ry
    limits (-180.0 0.0)
  end
  begin
     id 28
     name rhand
     direction -1 -4.48982e-011 2.35888e-026   
     length 0.681156   
     axis -1.50533e-014 -90 -90   XYZ
    dof rx rz
    limits (-90.0 90.0)
           (-45.0 45.0)
  end
  begin
     id 29
     name rfingers
     direction -1 -4.48955e-011 4.71877e-026   
     length 0.549165   
     axis -3.01059e-014 -90 -90   XYZ
    dof rx
    limits (0.0 90.0)
  end
  begin
     id 30
     name rthumb
     direction -0.707107 -6.3491e-011 0.707107   
     length 0.788495   
     axis -90 -45 5.12164e-014   XYZ
    dof rx rz
    limits (-45.0 45.0)
           (-45.0 45.0)
  end
:hierarchy
  begin
    root lhipjoint rhipjoint lowerback
    lhipjoint lfemur
    lfemur ltibia
    ltibia lfoot
    lfoot ltoes
    rhipjoint rfemur
    rfemur rtibia
    rtibia rfoot
    rfoot rtoes
    lowerback upperback
    upperback thorax
    thorax lowerneck lclavicle rclavicle
    lowerneck upperneck
    upperneck head
    lclavicle lhumerus
    lhumerus lradius
    lradius lwrist
    lwrist lhand lthumb
    lhand lfingers
    rclavicle rhumerus
    rhumerus rradius
    rradius rwrist
    rwrist rhand rthumb
    rhand rfingers
  end

#!OML:ASF H:\Bending\Project 1\Capture day 1\Session 1\Subject.ASF
:FULLY-SPECIFIED
:DEGREES
271
root -10.0305 18.2355 -16.5597 -159.257 87.72 -170.54
lowerback 6.75518 -0.638273 0.388731
upperback -3.02212 -0.638314 2.29898
thorax -6.93753 -0.261433 2.27099
lowerneck -28.8886 -2.78499 -4.82118
upperneck 33.531 -1.90512 1.57343
head 17.201 -1.00626 1.15008
rclavicle 6.65929e-015 7.95139e-016
rhumerus 1.21209 17.2021 -75.9103
rradius 62.6606
rwrist 7.21247
rhand -34.1381 -35.2859
rfingers 7.12502
rthumb -7.31284 -65.1395
lclavicle 6.65929e-015 7.95139e-016
lhumerus 9.34517 -28.9424 72.7171
lradius 58.5392
lwrist 52.4817
lhand -37.5973 14.7354
lfingers 7.12502
lthumb -10.6509 44.4455
rfemur -1.60391 -0.426938 15.2655
rtibia -3.18055e-015
rfoot -7.5398 -19.1305
rtoes -3.37451
lfemur -13.9941 -14.7439 -11.7578
ltibia 21.0933
lfoot -21.083 9.65201
ltoes 14.2584
272
root -10.0089 18.2265 -16.555 -155.943 87.8616 -167.001
lowerback 6.65897 -0.637769 0.358216
upperback -2.97516 -0.638933 2.35769
thorax -6.83125 -0.259601 2.3472
lowerneck -28.8035 -2.72585 -4.71985
upperneck 33.4681 -1.83448 1.47434
head 17.1423 -0.980168 1.10358
rclavicle 8.34896e-015 -3.18055e-014
rhumerus -3.11326 16.8272 -76.9229
rradius 63.5829
rwrist 7.56973
rhand -34.2023 -35.1398
rfingers 7.12502
rthumb -7.37488 -64.9912
lclavicle 8.34896e-015 -3.18055e-014
lhumerus 5.51332 -29.8758 73.7943
lradius 60.1924
lwrist 53.1325
lhand -39.9891 14.6936
lfingers 7.12502
lthumb -12.9573 44.2713
rfemur -1.29822 -0.222695 15.3751
rtibia -3.18055e-015
rfoot -7.70675 -19.1019
rtoes -3.02025
lfemur -13.6086 -14.8589 -11.6978
ltibia 21.1382
lfoot -21.3224 9.61387
ltoes 14.7557
273
root -9.98872 18.2161 -16.5494 -150.711 88.0104 -161.508
lowerback 6.59848 -0.641001 0.29692
upperback -2.89418 -0.644636 2.45973
thorax -6.70868 -0.258125 2.48691
lowerneck -28.7389 -2.65352 -4.6007
upperneck 33.381 -1.74812 1.36086
head 17.075 -0.948087 1.05069
rclavicle -7.35503e-015 -1.74931e-014
rhumerus -7.26564 16.3614 -77.7954
rradius 63.8201
rwrist 7.54391
rhand -34.2533 -35.2428
rfingers 7.12502
rthumb -7.42406 -65.0925
lclavicle -7.35503e-015 -1.74931e-014
lhumerus 1.52322 -30.5791 75.1398
lradius 61.5778
lwrist 53.4359
lhand -42.0115 14.7748
lfingers 7.12502
lthumb -14.9062 44.2185
rfemur -0.980261 0.0233902 15.5357
rtibia -9.54166e-015
rfoot -7.7851 -19.0917
rtoes -3.07756
lfemur -13.1998 -14.9367 -11.6075
ltibia 21.2231
lfoot -21.5591 9.58455
ltoes 15.2009
274
root -9.97072 18.2047 -16.5427 -143.579 88.1584 -154.098
lowerback 6.57522 -0.631157 0.213904
upperback -2.79409 -0.633572 2.57885
thorax -6.58777 -0.247312 2.65511
lowerneck -28.6955 -2.59361 -4.49931
upperneck 33.2906 -1.68795 1.28867
head 17.0133 -0.922624 1.01342
rclavicle 3.77691e-015 0
rhumerus -11.1958 15.7638 -78.5075
rradius 63.4076
rwrist 7.09909
rhand -34.1645 -35.6387
rfingers 7.12502
rthumb -7.33831 -65.4915
lclavicle 3.77691e-015 0
lhumerus -2.55706 -31.0552 76.7259
lradius 62.6705
lwrist 53.3465
lhand -43.4237 14.8752
lfingers 7.12502
lthumb -16.2664 44.2128
rfemur -0.670446 0.307633 15.7267
rtibia -1.27222e-014
rfoot -7.77093 -19.1092
rtoes -3.57515
lfemur -12.7856 -14.9498 -11.5077
ltibia 21.3353
lfoot -21.7634 9.58077
ltoes 15.375
275
root -9.95534 18.1936 -16.5353 -134.837 88.2987 -145.09
lowerback 6.57589 -0.595212 0.126949
upperback -2.69356 -0.588756 2.68247
thorax -6.48207 -0.220272 2.8057
lowerneck -28.673 -2.56597 -4.44019
upperneck 33.2109 -1.68688 1.2981
head 16.966 -0.913796 1.00675
rclavicle 1.2424e-014 -1.51076e-014
rhumerus -14.8878 15.0067 -79.0605
rradius 62.4288
rwrist 6.3658
rhand -33.866 -36.1676
rfingers 7.12502
rthumb -7.05022 -66.0302
lclavicle 1.2424e-014 -1.51076e-014
lhumerus -6.64935 -31.3438 78.4912
lradius 63.465
lwrist 52.9255
lhand -44.1796 14.8635
lfingers 7.12502
lthumb -16.9941 44.1401
rfemur -0.398035 0.61962 15.9168
rtibia 9.54166e-015
rfoot -7.69112 -19.1559
rtoes -4.37007
lfemur -12.395 -14.895 -11.4195
ltibia 21.4523
lfoot -21.9211 9.62059
ltoes 15.1435
276
root -9.94285 18.184 -16.5278 -124.925 88.425 -134.96
lowerback 6.5786 -0.529924 0.0561713
upperback -2.61107 -0.505667 2.74535
thorax -6.39934 -0.176031 2.90026
lowerneck -28.6673 -2.5765 -4.42784
upperneck 33.1446 -1.75391 1.39589
head 16.9341 -0.924705 1.03242
rclavicle -5.96354e-016 6.36111e-015
rhumerus -18.3533 14.0939 -79.4676
rradius 61.0031
rwrist 5.59919
rhand -33.4107 -36.5676
rfingers 7.12502
rthumb -6.61066 -66.4444
lclavicle -5.96354e-016 6.36111e-015
lhumerus -10.6904 -31.4831 80.3662
lradius 63.9792
lwrist 52.3026
lhand -44.4108 14.6648
lfingers 7.12502
lthumb -17.2166 43.9221
rfemur -0.192493 0.942152 16.076
rtibia 6.36111e-015
rfoot -7.59143 -19.2249
rtoes -5.20314
lfemur -12.06 -14.793 -11.3564
ltibia 21.5497
lfoot -22.0368 9.71206
ltoes 14.5317
277
root -9.93322 18.1769 -16.5213 -114.376 88.5295 -124.266
lowerback 6.56409 -0.442781 0.0165264
upperback -2.55991 -0.393469 2.75878
thorax -6.34217 -0.119682 2.92221
lowerneck -28.6694 -2.61656 -4.4485
upperneck 33.084 -1.87232 1.55465
head 16.9104 -0.951075 1.07948
rclavicle -8.05078e-015 -1.59028e-014
rhumerus -21.6116 13.0622 -79.7444
rradius 59.2599
rwrist 5.08606
rhand -32.9495 -36.6482
rfingers 7.12502
rthumb -6.16541 -66.5385
lclavicle -8.05078e-015 -1.59028e-014
lhumerus -14.6391 -31.4792 82.2893
lradius 64.2468
lwrist 51.6038
lhand -44.3441 14.3141
lfingers 7.12502
lthumb -17.1524 43.577
rfemur -0.071711 1.25383 16.1865
rtibia 3.18055e-015
rfoot -7.5204 -19.3026
rtoes -5.79381
lfemur -11.8039 -14.6784 -11.3199
ltibia 21.609
lfoot -22.1289 9.84621
ltoes 13.7279
278
root -9.92614 18.1725 -16.5163 -103.913 88.6031 -113.738
lowerback 6.52648 -0.347941 0.0127006
upperback -2.54385 -0.269962 2.73152
thorax -6.30984 -0.0598094 2.8802
lowerneck -28.6676 -2.66969 -4.48086
upperneck 33.0151 -2.01048 1.7285
head 16.8833 -0.984614 1.13067
rclavicle 1.23246e-014 -2.54444e-014
rhumerus -24.6686 11.9632 -79.9033
rradius 57.3088
rwrist 5.03586
rhand -32.6362 -36.4084
rfingers 7.12502
rthumb -5.86296 -66.3073
lclavicle 1.23246e-014 -2.54444e-014
lhumerus -18.4676 -31.2995 84.209
lradius 64.3058
lwrist 50.8888
lhand -44.1973 13.9324
lfingers 7.12502
lthumb -17.0111 43.2075
rfemur -0.031295 1.53347 16.2475
rtibia 7.95139e-015
rfoot -7.51384 -19.3717
rtoes -5.94259
lfemur -11.6298 -14.5856 -11.3012
ltibia 21.6238
lfoot -22.2205 9.99696
ltoes 13.0164
279
root -9.92118 18.1699 -16.513 -94.5313 88.6403 -104.348
lowerback 6.47765 -0.260192 0.0392795
upperback -2.5559 -0.154016 2.68282
thorax -6.30034 -0.00500818 2.79985
lowerneck -28.6503 -2.72106 -4.50904
upperneck 32.9247 -2.13876 1.87721
head 16.8414 -1.01774 1.17178
rclavicle -2.78299e-015 1.59028e-014
rhumerus -27.5103 10.8393 -79.9523
rradius 55.226
rwrist 5.49573
rhand -32.5355 -36.0124
rfingers 7.12502
rthumb -5.76579 -65.9139
lclavicle -2.78299e-015 1.59028e-014
lhumerus -22.1482 -30.8877 86.078
lradius 64.1882
lwrist 50.127
lhand -44.1031 13.6424
lfingers 7.12502
lthumb -16.9205 42.9253
rfemur -0.0419181 1.76411 16.2729
rtibia 2.8625e-014
rfoot -7.58524 -19.4147
rtoes -5.60048
lfemur -11.5181 -14.5366 -11.2883
ltibia 21.6017
lfoot -22.3284 10.1321
ltoes 12.6336
280
root -9.91796 18.1674 -16.5109 -87.2731 88.6448 -97.0994
lowerback 6.44229 -0.189844 0.0851311
upperback -2.58118 -0.0591366 2.63168
thorax -6.31124 0.038849 2.70901
lowerneck -28.6097 -2.76401 -4.5299
upperneck 32.8048 -2.24228 1.98316
head 16.7779 -1.04692 1.19764
rclavicle 1.68967e-015 -7.95139e-016
rhumerus -30.1188 9.70948 -79.8965
rradius 53.0705
rwrist 6.32116
rhand -32.5919 -35.6554
rfingers 7.12502
rthumb -5.82021 -65.5554
lclavicle 1.68967e-015 -7.95139e-016
lhumerus -25.6485 -30.1869 87.8488
lradius 63.9208
lwrist 49.2231
lhand -44.0882 13.4969
lfingers 7.12502
lthumb -16.9061 42.781
rfemur -0.0577215 1.93554 16.2819
rtibia 4.77083e-015
rfoot -7.72519 -19.4195
rtoes -4.87686
lfemur -11.4339 -14.5379 -11.2732
ltibia 21.5613
lfoot -22.4569 10.2264
ltoes 12.6599
281
root -9.91632 18.1636 -16.5095 -82.7513 88.6288 -92.564
lowerback 6.44544 -0.140888 0.14045
upperback -2.6033 0.00905804 2.58845
thorax -6.33941 0.0694462 2.62469
lowerneck -28.543 -2.80029 -4.55163
upperneck 32.6553 -2.32292 2.05446
head 16.6924 -1.07276 1.21291
rclavicle 8.94531e-016 9.54166e-015
rhumerus -32.5031 8.58143 -79.7451
rradius 50.9234
rwrist 7.21067
rhand -32.6676 -35.4272
rfingers 7.12502
rthumb -5.8933 -65.3253
lclavicle 8.94531e-016 9.54166e-015
lhumerus -28.9367 -29.1571 89.4741
lradius 63.5328
lwrist 48.081
lhand -44.1034 13.457
lfingers 7.12502
lthumb -16.9207 42.7399
rfemur -0.0341601 2.04496 16.2902
rtibia -2.06736e-014
rfoot -7.90931 -19.3842
rtoes -3.98801
lfemur -11.3435 -14.5836 -11.2562
ltibia 21.525
lfoot -22.5968 10.2753
ltoes 12.9721
282
root -9.91627 18.1573 -16.508 -80.9344 88.6073 -90.6861
lowerback 6.4988 -0.11167 0.200342
upperback -2.61118 0.0521089 2.55213
thorax -6.38007 0.0875356 2.54829
lowerneck -28.4527 -2.83491 -4.58479
upperneck 32.4836 -2.39147 2.11319
head 16.5905 -1.09744 1.22698
rclavicle 5.96354e-016 -1.90833e-014
rhumerus -34.721 7.47998 -79.5219
rradius 48.922
rwrist 7.79275
rhand -32.6217 -35.2728
rfingers 7.12502
rthumb -5.84898 -65.1721
lclavicle 5.96354e-016 -1.90833e-014
lhumerus -31.9915 -27.78 90.9106
lradius 63.0646
lwrist 46.6703
lhand -44.0797 13.4318
lfingers 7.12502
lthumb -16.8979 42.7166
rfemur 0.0528855 2.09615 16.3034
rtibia 1.59028e-014
rfoot -8.11343 -19.3173
rtoes -3.14877
lfemur -11.2297 -14.6638 -11.2448
ltibia 21.5098
lfoot -22.7331 10.297
ltoes 13.3212
283
root -9.91797 18.149 -16.5064 -81.3089 88.5919 -90.9552
lowerback 6.59233 -0.0970882 0.265817
upperback -2.60317 0.0761638 2.51443
thorax -6.42605 0.0958054 2.46967
lowerneck -28.3453 -2.8698 -4.63302
upperneck 32.3016 -2.45588 2.17832
head 16.4805 -1.1215 1.24728
rclavicle -2.08724e-015 1.98785e-014
rhumerus -36.8717 6.47079 -79.2731
rradius 47.2558
rwrist 7.73562
rhand -32.3793 -35.0765
rfingers 7.12502
rthumb -5.61497 -64.9821
lclavicle -2.08724e-015 1.98785e-014
lhumerus -34.8064 -26.0554 92.1243
lradius 62.5694
lwrist 45.0685
lhand -43.9753 13.3473
lfingers 7.12502
lthumb -16.7974 42.6407
rfemur 0.195938 2.09811 16.3176
rtibia -1.27222e-014
rfoot -8.32221 -19.2351
rtoes -2.48834
lfemur -11.1001 -14.7706 -11.2469
ltibia 21.5206
lfoot -22.8532 10.3269
ltoes 13.4509
284
root -9.92149 18.1401 -16.5047 -83.1793 88.5873 -92.7043
lowerback 6.69643 -0.0905973 0.340546
upperback -2.58622 0.089526 2.46724
thorax -6.46805 0.0979993 2.37708
lowerneck -28.2297 -2.9008 -4.68881
upperneck 32.1215 -2.51445 2.2536
head 16.3705 -1.14252 1.2747
rclavicle 3.18055e-015 1.59028e-015
rhumerus -39.0536 5.65006 -79.0635
rradius 46.1051
rwrist 6.8523
rhand -31.9487 -34.7888
rfingers 7.12502
rthumb -5.19921 -64.705
lclavicle 3.18055e-015 1.59028e-015
lhumerus -37.389 -24.0011 93.0943
lradius 62.1052
lwrist 43.4545
lhand -43.79 13.2023
lfingers 7.12502
lthumb -16.6191 42.5107
rfemur 0.359879 2.06319 16.3256
rtibia -1.59028e-015
rfoot -8.53057 -19.1556
rtoes -2.01231
lfemur -10.9817 -14.9011 -11.2641
ltibia 21.5493
lfoot -22.9532 10.4031
ltoes 13.2105
